<?xml version="1.0" standalone="no"?>
<svg viewBox="0 0 200 200" xmlns="http://www.w3.org/2000/svg">
  <path fill="#349EFF" d="M32.5,-53.4C44.7,-49.4,58.8,-45.7,63.6,-36.9C68.5,-28,64.2,-14,63.1,-0.6C62,12.8,64.1,25.5,58.3,32.7C52.5,39.9,38.7,41.5,27.7,46.9C16.6,52.3,8.3,61.4,-1.8,64.4C-11.8,67.5,-23.7,64.5,-32.7,58C-41.8,51.5,-48,41.4,-55.8,31.1C-63.6,20.9,-73,10.4,-70.8,1.2C-68.7,-7.9,-55,-15.9,-44.1,-20.8C-33.2,-25.8,-25.2,-27.8,-18.3,-34.8C-11.4,-41.9,-5.7,-54,2.2,-57.9C10.2,-61.8,20.4,-57.4,32.5,-53.4Z" transform="translate(100 100)" />
</svg>
